  <svg
        width='152'
        height='72'
        viewBox='0 0 152 72'
        fill='none'
        xmlns='http://www.w3.org/2000/svg'
      >
        <path
          d='M100.443 71H40.542C23.7188 71 6.5439 52.9504 1.68702 38.7685C-2.19847 27.423 10.9678 8.43368 26.7867 5.02511C37.7981 2.65243 85.8125 -2.70324 118.189 5.02521C132.324 8.3994 143.51 13.7619 147.393 22.0081C162.935 55.0132 124.686 71 100.443 71Z'
          fill='#B7B7A4'
          stroke='#171717'
          stroke-opacity='0.0901961'
          stroke-width='2'
          stroke-linecap='round'
          stroke-linejoin='round'
        />
        <svg width="49" height="49" viewBox="0 0 49 49" fill="none" xmlns="http://www.w3.org/2000/svg">
<path d="M29.5 17.8333H29.5167" stroke="black" stroke-width="2" stroke-linecap="round" stroke-linejoin="round"/>
<path d="M11.1667 16.1667C11.1667 14.8406 11.6935 13.5688 12.6311 12.6312C13.5688 11.6935 14.8406 11.1667 16.1667 11.1667H32.8333C34.1594 11.1667 35.4312 11.6935 36.3689 12.6312C37.3065 13.5688 37.8333 14.8406 37.8333 16.1667V32.8334C37.8333 34.1594 37.3065 35.4312 36.3689 36.3689C35.4312 37.3066 34.1594 37.8334 32.8333 37.8334H16.1667C14.8406 37.8334 13.5688 37.3066 12.6311 36.3689C11.6935 35.4312 11.1667 34.1594 11.1667 32.8334V16.1667Z" stroke="black" stroke-width="2" stroke-linecap="round" stroke-linejoin="round"/>
<path d="M11.1667 29.5L17.8333 22.8333C18.5934 22.1019 19.4556 21.7169 20.3333 21.7169C21.211 21.7169 22.0732 22.1019 22.8333 22.8333L31.1667 31.1666" stroke="black" stroke-width="2" stroke-linecap="round" stroke-linejoin="round"/>
<path d="M27.8333 27.8334L29.5 26.1667C30.2601 25.4353 31.1223 25.0502 32 25.0502C32.8777 25.0502 33.7399 25.4353 34.5 26.1667L37.8333 29.5" stroke="black" stroke-width="2" stroke-linecap="round" stroke-linejoin="round"/>
</svg>

      </svg>