<svg width="41" height="41" viewBox="0 0 41 41" fill="none" xmlns="http://www.w3.org/2000/svg">
<path d="M20.5 40C31.2695 40 40 31.2695 40 20.5C40 9.73044 31.2695 1 20.5 1C9.73044 1 1 9.73044 1 20.5C1 31.2695 9.73044 40 20.5 40Z" fill="#FFCB12" stroke="black" stroke-width="2" stroke-linecap="round" stroke-linejoin="round"/>
<path d="M26.3499 13.6751C25.0142 12.3393 22.6619 11.4102 20.4999 11.3521L26.3499 13.6751ZM14.6499 26.3501C15.9066 28.0257 18.2434 28.9814 20.4999 29.0625L14.6499 26.3501ZM20.4999 11.3521C17.9277 11.2829 15.6249 12.4465 15.6249 15.6251C15.6249 21.4751 26.3499 18.5501 26.3499 24.4001C26.3499 27.7365 23.4955 29.1702 20.4999 29.0625M20.4999 11.3521V7.82507V11.3521ZM20.4999 29.0625V33.1751V29.0625Z" fill="#FFCB12"/>
<path d="M26.3499 13.6751C25.0142 12.3393 22.6619 11.4102 20.4999 11.3521M20.4999 11.3521C17.9277 11.2829 15.6249 12.4465 15.6249 15.6251C15.6249 21.4751 26.3499 18.5501 26.3499 24.4001C26.3499 27.7365 23.4955 29.1702 20.4999 29.0625M20.4999 11.3521V7.82507M14.6499 26.3501C15.9066 28.0257 18.2434 28.9814 20.4999 29.0625M20.4999 29.0625V33.1751" stroke="black" stroke-width="2" stroke-linecap="round" stroke-linejoin="round"/>
</svg>
