<svg width="14" height="16" viewBox="0 0 14 16" fill="none" xmlns="http://www.w3.org/2000/svg">
<path d="M9.34783 10.2145C8.6509 10.8497 7.81487 11.342 6.8804 11.5941C5.26985 12.0286 3.37468 11.6533 2.26616 10.482C1.70662 9.89078 1.36945 9.13884 1.19321 8.36814C1.01697 7.59745 0.993529 6.80381 1.00127 6.01588C1.00973 5.15345 1.0601 4.26873 1.42844 3.47736C1.73115 2.827 2.23517 2.27295 2.79826 1.79588C3.12357 1.52027 3.47976 1.26232 3.89625 1.13062C4.16893 1.0444 4.45869 1.01526 4.74643 1.00457C6.91765 0.923932 9.07265 1.91665 10.4341 3.49325C10.7024 3.80385 10.9434 4.13764 11.1157 4.50246C11.7389 5.82207 11.3815 7.38992 10.6266 8.6485C10.2835 9.22065 9.85205 9.75495 9.34783 10.2145ZM9.34783 10.2145L13 15" stroke="black" stroke-width="2" stroke-linecap="round" stroke-linejoin="round"/>
</svg>
